<?xml version="1.0" standalone="no"?><svg xmlns="http://www.w3.org/2000/svg" viewBox="0 0 1440 320"><path fill="#967345" fill-opacity="1" d="M0,128L34.3,128C68.6,128,137,128,206,144C274.3,160,343,192,411,192C480,192,549,160,617,154.7C685.7,149,754,171,823,165.3C891.4,160,960,128,1029,138.7C1097.1,149,1166,203,1234,224C1302.9,245,1371,235,1406,229.3L1440,224L1440,0L1405.7,0C1371.4,0,1303,0,1234,0C1165.7,0,1097,0,1029,0C960,0,891,0,823,0C754.3,0,686,0,617,0C548.6,0,480,0,411,0C342.9,0,274,0,206,0C137.1,0,69,0,34,0L0,0Z"></path></svg>